<svg width="128" height="128" viewBox="0 0 128 128" fill="none" xmlns="http://www.w3.org/2000/svg">
  <rect x="8" y="8" width="112" height="112" rx="30" fill="url(#bg)"/>
  <rect x="8.75" y="8.75" width="110.5" height="110.5" rx="29.25" stroke="url(#border)" stroke-width="1.5"/>
  <path d="M32 92L52.8 36H67.2L88 92H74.8L70.6 79.7H49.4L45.2 92H32Z" fill="url(#aFill)"/>
  <path d="M52.8 68.8H67.2L60 47.8L52.8 68.8Z" fill="#061017"/>
  <path d="M85.5 40.5C78.8 35.4 70.9 32.9 61.8 32.9C44.1 32.9 31.6 45.3 31.6 63.7C31.6 82.2 44.3 95.1 63.1 95.1C72.5 95.1 80.8 92.4 87.1 87.6V67.4H64.4V77.7H75.4V81.8C72.2 84 68.1 85.1 63.5 85.1C51.9 85.1 44.1 76.7 44.1 63.8C44.1 51.1 51.6 42.9 62.7 42.9C69.1 42.9 74.2 44.9 78.4 48.7L85.5 40.5Z" fill="url(#gStroke)" fill-opacity="0.34"/>
  <path d="M94.5 27.5C104.5 36.7 110.8 49.9 110.8 64.5C110.8 70.7 109.7 76.6 107.6 82.1" stroke="#23E6FF" stroke-width="4" stroke-linecap="round"/>
  <path d="M20.5 77.8C18.4 72.4 17.2 66.4 17.2 60.2C17.2 46 23.2 33.2 32.8 24.1" stroke="#FFB13B" stroke-width="4" stroke-linecap="round"/>
  <circle cx="100.8" cy="31.8" r="4.8" fill="#23E6FF"/>
  <circle cx="26.2" cy="87.4" r="4.8" fill="#FFB13B"/>
  <defs>
    <linearGradient id="bg" x1="18" y1="16" x2="112" y2="116" gradientUnits="userSpaceOnUse">
      <stop stop-color="#071F2A"/>
      <stop offset="0.52" stop-color="#061017"/>
      <stop offset="1" stop-color="#11100A"/>
    </linearGradient>
    <linearGradient id="border" x1="21" y1="15" x2="109" y2="111" gradientUnits="userSpaceOnUse">
      <stop stop-color="#23E6FF"/>
      <stop offset="1" stop-color="#FFB13B"/>
    </linearGradient>
    <linearGradient id="aFill" x1="34" y1="36" x2="82" y2="94" gradientUnits="userSpaceOnUse">
      <stop stop-color="#D8FBFF"/>
      <stop offset="0.45" stop-color="#23E6FF"/>
      <stop offset="1" stop-color="#FFB13B"/>
    </linearGradient>
    <linearGradient id="gStroke" x1="35" y1="32" x2="90" y2="94" gradientUnits="userSpaceOnUse">
      <stop stop-color="#23E6FF"/>
      <stop offset="1" stop-color="#FFB13B"/>
    </linearGradient>
  </defs>
</svg>
