<svg width="64" height="64" viewBox="0 0 128 128" fill="none" xmlns="http://www.w3.org/2000/svg">
  <rect x="8" y="8" width="112" height="112" rx="30" fill="url(#bg)"/>
  <rect x="8.75" y="8.75" width="110.5" height="110.5" rx="29.25" stroke="url(#border)" stroke-width="1.5"/>
  <path d="M32 92L52.8 36H67.2L88 92H74.8L70.6 79.7H49.4L45.2 92H32Z" fill="url(#aFill)"/>
  <path d="M52.8 68.8H67.2L60 47.8L52.8 68.8Z" fill="#061017"/>
  <path d="M94.5 27.5C104.5 36.7 110.8 49.9 110.8 64.5C110.8 70.7 109.7 76.6 107.6 82.1" stroke="#23E6FF" stroke-width="4" stroke-linecap="round"/>
  <path d="M20.5 77.8C18.4 72.4 17.2 66.4 17.2 60.2C17.2 46 23.2 33.2 32.8 24.1" stroke="#FFB13B" stroke-width="4" stroke-linecap="round"/>
  <circle cx="100.8" cy="31.8" r="4.8" fill="#23E6FF"/>
  <circle cx="26.2" cy="87.4" r="4.8" fill="#FFB13B"/>
  <defs>
    <linearGradient id="bg" x1="18" y1="16" x2="112" y2="116" gradientUnits="userSpaceOnUse">
      <stop stop-color="#071F2A"/>
      <stop offset="0.52" stop-color="#061017"/>
      <stop offset="1" stop-color="#11100A"/>
    </linearGradient>
    <linearGradient id="border" x1="21" y1="15" x2="109" y2="111" gradientUnits="userSpaceOnUse">
      <stop stop-color="#23E6FF"/>
      <stop offset="1" stop-color="#FFB13B"/>
    </linearGradient>
    <linearGradient id="aFill" x1="34" y1="36" x2="82" y2="94" gradientUnits="userSpaceOnUse">
      <stop stop-color="#D8FBFF"/>
      <stop offset="0.45" stop-color="#23E6FF"/>
      <stop offset="1" stop-color="#FFB13B"/>
    </linearGradient>
  </defs>
</svg>
